 http://desibbrg.org/images/66952052392581364616.gif
 
http://desibbrg.org/images/91049822196422222225.jpg
 
http://desibbrg.org/images/05843173479363489739.jpg
 
http://desibbrg.org/images/23950420231161224453.jpg
 
http://desibbrg.org/images/26282063786247774462.jpg

Info - 
Director: Ashok Sawant. 
Writer: Digambar Ladgey. 
Starring: Ashok Sawant, Kishore Ravrane, Sanjay Wagle, Babu Pawar, Anand Patil, Bharat Kale. 

Plot - 
This is a hard hitting play focusing on the harsh realities of life that makes humans cross the lines of morality in the name of greed and lust. Rosie runs a Bar where she is left to deal with drunk and unruly customers all day. Her husband, Dominic is treated like a total waste and doesn't care that Rosie is having an affair with a dangerous criminal. All Dominic cares about is seeing his daughter, Mary pass her school with first rank and become a doctor. But what happens when Mary, a top student, takes to alcohol and starts pulling stunts in the Bar? What cruel odds will the family fight as a series of unfortunate events are set into motion? Watch this intense play presented in a raw form that is both entertaining and thought provoking. 

Media Info - 
General
Complete name                  : Bed Partner - Marathi Drama.mp4
Format                         : MPEG-4
Format profile                 : Base Media / Version 2
Codec ID                       : mp42
File size                      : 248 MiB
Duration                       : 1h 19mn
Overall bit rate mode          : Variable
Overall bit rate               : 435 Kbps
Encoded date                   : UTC 2012-03-25 10:16:27
Tagged date                    : UTC 2012-03-25 10:16:27
gsst                           : 0
gstd                           : 4781685
gssd                           : B7D636EC7HH1355915544473241

Video
ID                             : 1
Format                         : AVC
Format/Info                    : Advanced Video Codec
Format profile                 : Baseline@L2.1
Format settings, CABAC         : No
Format settings, ReFrames      : 1 frame
Format settings, GOP           : M=1, N=30
Codec ID                       : avc1
Codec ID/Info                  : Advanced Video Coding
Duration                       : 1h 19mn
Bit rate                       : 336 Kbps
Maximum bit rate               : 872 Kbps
Width                          : 480 pixels
Height                         : 360 pixels
Display aspect ratio           : 4:3
Frame rate mode                : Constant
Frame rate                     : 25.000 fps
Color space                    : YUV
Chroma subsampling             : 4:2:0
Bit depth                      : 8 bits
Scan type                      : Progressive
Bits/(Pixel*Frame)             : 0.078
Stream size                    : 192 MiB (77%)

Audio
ID                             : 2
Format                         : AAC
Format/Info                    : Advanced Audio Codec
Format profile                 : LC
Codec ID                       : 40
Duration                       : 1h 19mn
Bit rate mode                  : Variable
Bit rate                       : 96.0 Kbps
Maximum bit rate               : 132 Kbps
Channel(s)                     : 2 channels
Channel positions              : Front: L R
Sampling rate                  : 44.1 KHz
Compression mode               : Lossy
Stream size                    : 54.7 MiB (22%)

Ripper : SaketSaket

Note : Initial seeding will be very slow...

Seeding 24x7... Extreme Seeding...


Enjoy!